<svg width="199" height="41" viewBox="0 0 199 41" fill="none" xmlns="http://www.w3.org/2000/svg">
<path d="M37.3303 39.8026H29.0544L28.4376 25.8155C28.2662 22.4778 28.1806 19.5015 28.1806 16.8864C28.1806 14.8907 28.232 12.9983 28.3348 11.209L22.8346 36.0348H14.8671L9.00715 11.209C9.21276 14.2026 9.31557 17.0241 9.31557 19.6735C9.31557 21.6692 9.26417 23.751 9.16136 25.9187L8.54452 39.8026H0.320007L2.99297 4.03483H13.6334L18.9794 28.2929L23.9655 4.03483H34.6574L37.3303 39.8026Z" fill="#141414"/>
<path d="M63.9126 31.8542C63.9126 32.8864 64.0497 33.6434 64.3238 34.1252C64.6323 34.6069 65.112 34.9682 65.7631 35.209L64.0668 40.5252C62.3877 40.3875 61.0169 40.0262 59.9546 39.4413C58.8922 38.8219 58.0698 37.8585 57.4872 36.551C55.7052 39.3036 52.9637 40.68 49.2627 40.68C46.5555 40.68 44.3965 39.8886 42.7859 38.3058C41.1753 36.723 40.3699 34.6585 40.3699 32.1123C40.3699 29.1187 41.4665 26.8305 43.6597 25.2477C45.853 23.6649 49.0228 22.8735 53.1693 22.8735H55.9451V21.6864C55.9451 20.0692 55.6024 18.9682 54.9171 18.3832C54.2317 17.7639 53.0323 17.4542 51.3188 17.4542C50.4278 17.4542 49.3484 17.5918 48.0804 17.8671C46.8125 18.1079 45.5103 18.452 44.1738 18.8993L42.3233 13.5316C44.0367 12.8778 45.7844 12.3789 47.5664 12.0348C49.3826 11.6907 51.0618 11.5187 52.6039 11.5187C56.5106 11.5187 59.372 12.3273 61.1883 13.9445C63.0045 15.5617 63.9126 17.9875 63.9126 21.2219V31.8542ZM51.6272 34.8477C53.4778 34.8477 54.9171 33.9703 55.9451 32.2155V27.3639H53.9404C52.0899 27.3639 50.702 27.6907 49.7767 28.3445C48.8857 28.9983 48.4403 30.0133 48.4403 31.3897C48.4403 32.4907 48.7144 33.351 49.2627 33.9703C49.8453 34.5553 50.6335 34.8477 51.6272 34.8477Z" fill="#141414"/>
<path d="M87.4991 38.5122C86.5053 39.2004 85.3401 39.7338 84.0037 40.1123C82.7014 40.4907 81.3992 40.68 80.097 40.68C74.1342 40.6456 71.1528 37.3424 71.1528 30.7703V18.0735H67.2976V12.3961H71.1528V6.46064L79.2746 5.5316V12.3961H85.5457L84.6719 18.0735H79.2746V30.6671C79.2746 31.9402 79.4802 32.852 79.8914 33.4026C80.3026 33.9531 80.9537 34.2284 81.8447 34.2284C82.77 34.2284 83.7466 33.9359 84.7747 33.351L87.4991 38.5122Z" fill="#141414"/>
<path d="M106.197 11.5187C108.561 11.5187 110.412 12.2413 111.748 13.6864C113.085 15.1316 113.753 17.1617 113.753 19.7768V39.8026H105.631V21.1703C105.631 19.794 105.408 18.8477 104.963 18.3316C104.517 17.7811 103.883 17.5058 103.061 17.5058C101.416 17.5058 99.8397 18.6757 98.3319 21.0155V39.8026H90.2102V1.5058L98.3319 0.679993V15.3381C99.4628 14.0649 100.662 13.1187 101.93 12.4993C103.198 11.8456 104.62 11.5187 106.197 11.5187Z" fill="#141414"/>
<path d="M143.677 25.5574C143.677 26.6929 143.626 27.6735 143.523 28.4993H126.611C126.885 30.8047 127.537 32.4219 128.565 33.351C129.593 34.28 131.015 34.7445 132.831 34.7445C133.928 34.7445 134.99 34.5553 136.018 34.1768C137.046 33.7639 138.16 33.1445 139.359 32.3187L142.701 36.8606C139.514 39.4069 135.967 40.68 132.06 40.68C127.639 40.68 124.247 39.3725 121.882 36.7574C119.518 34.1424 118.335 30.6327 118.335 26.2284C118.335 23.4413 118.832 20.9467 119.826 18.7445C120.82 16.5079 122.276 14.7531 124.195 13.48C126.114 12.1725 128.41 11.5187 131.083 11.5187C135.024 11.5187 138.108 12.7574 140.336 15.2348C142.563 17.7123 143.677 21.1531 143.677 25.5574ZM135.71 23.2348C135.641 19.037 134.168 16.9381 131.289 16.9381C129.884 16.9381 128.787 17.4542 127.999 18.4864C127.245 19.5187 126.783 21.2219 126.611 23.5961H135.71V23.2348Z" fill="#141414"/>
<path d="M171.268 39.8026H164.226L163.866 36.3445C161.879 39.2348 159.12 40.68 155.59 40.68C153.089 40.68 151.187 39.923 149.885 38.409C148.617 36.895 147.983 34.7789 147.983 32.0606V12.3961H156.104V31.0284C156.104 32.3703 156.31 33.3166 156.721 33.8671C157.167 34.3832 157.835 34.6413 158.726 34.6413C160.439 34.6413 161.913 33.5746 163.147 31.4413V12.3961H171.268V39.8026Z" fill="#141414"/>
<path d="M187.268 11.5187C189.222 11.5187 191.055 11.8112 192.768 12.3961C194.482 12.9811 195.99 13.8069 197.292 14.8735L194.311 19.4671C192.083 18.0563 189.838 17.351 187.577 17.351C186.514 17.351 185.692 17.5402 185.109 17.9187C184.561 18.2628 184.287 18.7617 184.287 19.4155C184.287 19.9316 184.407 20.3617 184.647 20.7058C184.921 21.0155 185.452 21.3424 186.24 21.6864C187.028 22.0305 188.245 22.4434 189.89 22.9252C192.734 23.751 194.842 24.8348 196.212 26.1768C197.617 27.4843 198.32 29.3079 198.32 31.6477C198.32 33.5058 197.789 35.123 196.726 36.4993C195.664 37.8413 194.208 38.8735 192.357 39.5961C190.507 40.3187 188.451 40.68 186.189 40.68C183.893 40.68 181.751 40.3187 179.763 39.5961C177.81 38.8735 176.148 37.8757 174.777 36.6026L178.735 32.1639C181.031 33.9531 183.447 34.8477 185.983 34.8477C187.217 34.8477 188.176 34.6241 188.862 34.1768C189.581 33.7295 189.941 33.0929 189.941 32.2671C189.941 31.6133 189.804 31.0972 189.53 30.7187C189.256 30.3402 188.725 29.9961 187.937 29.6864C187.148 29.3424 185.898 28.9295 184.184 28.4477C181.477 27.6563 179.455 26.5553 178.119 25.1445C176.782 23.7338 176.114 21.9789 176.114 19.88C176.114 18.2972 176.559 16.8864 177.45 15.6477C178.376 14.3746 179.678 13.3768 181.357 12.6542C183.07 11.8972 185.041 11.5187 187.268 11.5187Z" fill="#141414"/>
</svg>
